<mxfile host="app.diagrams.net" modified="2023-12-04T06:25:54.753Z" agent="Mozilla/5.0 (Windows NT 10.0; Win64; x64) AppleWebKit/537.36 (KHTML, like Gecko) Chrome/118.0.0.0 Safari/537.36 OPR/104.0.0.0" etag="wyPHVlQaVuCZ-JEwguEq" version="22.1.5" type="device">
  <diagram id="R2lEEEUBdFMjLlhIrx00" name="Page-1">
    <mxGraphModel dx="1393" dy="758" grid="0" gridSize="10" guides="1" tooltips="1" connect="1" arrows="1" fold="1" page="1" pageScale="1" pageWidth="850" pageHeight="1100" math="0" shadow="0" extFonts="Permanent Marker^https://fonts.googleapis.com/css?family=Permanent+Marker">
      <root>
        <mxCell id="0" />
        <mxCell id="1" parent="0" />
        <mxCell id="O0CfwukFVVHpra1-1LsU-20" value="" style="endArrow=none;dashed=1;html=1;dashPattern=1 3;strokeWidth=2;rounded=0;entryX=0.7;entryY=1.011;entryDx=0;entryDy=0;entryPerimeter=0;" parent="1" edge="1">
          <mxGeometry width="50" height="50" relative="1" as="geometry">
            <mxPoint x="808" y="54" as="sourcePoint" />
            <mxPoint x="740" y="54" as="targetPoint" />
          </mxGeometry>
        </mxCell>
        <mxCell id="O0CfwukFVVHpra1-1LsU-21" value="Extended" style="text;html=1;align=center;verticalAlign=middle;resizable=0;points=[];autosize=1;strokeColor=none;fillColor=none;" parent="1" vertex="1">
          <mxGeometry x="740" y="9" width="70" height="30" as="geometry" />
        </mxCell>
        <mxCell id="O0CfwukFVVHpra1-1LsU-22" value="" style="endArrow=none;dashed=1;html=1;rounded=0;" parent="1" edge="1">
          <mxGeometry width="50" height="50" relative="1" as="geometry">
            <mxPoint x="812" y="112" as="sourcePoint" />
            <mxPoint x="742" y="112" as="targetPoint" />
          </mxGeometry>
        </mxCell>
        <mxCell id="O0CfwukFVVHpra1-1LsU-23" value="Include" style="text;html=1;align=center;verticalAlign=middle;resizable=0;points=[];autosize=1;strokeColor=none;fillColor=none;" parent="1" vertex="1">
          <mxGeometry x="745" y="71" width="60" height="30" as="geometry" />
        </mxCell>
        <mxCell id="O0CfwukFVVHpra1-1LsU-24" value="" style="endArrow=none;html=1;rounded=0;entryX=0;entryY=0.5;entryDx=0;entryDy=0;" parent="1" edge="1">
          <mxGeometry width="50" height="50" relative="1" as="geometry">
            <mxPoint x="815" y="163.5" as="sourcePoint" />
            <mxPoint x="745" y="163" as="targetPoint" />
          </mxGeometry>
        </mxCell>
        <mxCell id="O0CfwukFVVHpra1-1LsU-32" value="" style="endArrow=classic;html=1;rounded=0;" parent="1" edge="1">
          <mxGeometry width="50" height="50" relative="1" as="geometry">
            <mxPoint x="738" y="243" as="sourcePoint" />
            <mxPoint x="818" y="243" as="targetPoint" />
          </mxGeometry>
        </mxCell>
        <mxCell id="GGpWKW-SkmRGBh7Yy35_-1" value="Ассоциация" style="edgeLabel;html=1;align=center;verticalAlign=middle;resizable=0;points=[];" vertex="1" connectable="0" parent="1">
          <mxGeometry x="775.0011211305691" y="139.185900867496" as="geometry" />
        </mxCell>
        <mxCell id="GGpWKW-SkmRGBh7Yy35_-2" value="root" style="shape=umlActor;verticalLabelPosition=bottom;verticalAlign=top;html=1;outlineConnect=0;" vertex="1" parent="1">
          <mxGeometry x="318" y="442" width="30" height="60" as="geometry" />
        </mxCell>
        <mxCell id="GGpWKW-SkmRGBh7Yy35_-3" value="" style="endArrow=classic;html=1;rounded=0;exitX=0.75;exitY=0.1;exitDx=0;exitDy=0;exitPerimeter=0;entryX=0;entryY=1;entryDx=0;entryDy=0;entryPerimeter=0;" edge="1" parent="1" source="GGpWKW-SkmRGBh7Yy35_-2" target="GGpWKW-SkmRGBh7Yy35_-6">
          <mxGeometry width="50" height="50" relative="1" as="geometry">
            <mxPoint x="345" y="441" as="sourcePoint" />
            <mxPoint x="394" y="420" as="targetPoint" />
          </mxGeometry>
        </mxCell>
        <mxCell id="GGpWKW-SkmRGBh7Yy35_-4" value="" style="endArrow=classic;html=1;rounded=0;exitX=0.25;exitY=0.1;exitDx=0;exitDy=0;exitPerimeter=0;entryX=1;entryY=1;entryDx=0;entryDy=0;entryPerimeter=0;" edge="1" parent="1" source="GGpWKW-SkmRGBh7Yy35_-2" target="GGpWKW-SkmRGBh7Yy35_-5">
          <mxGeometry width="50" height="50" relative="1" as="geometry">
            <mxPoint x="227" y="393" as="sourcePoint" />
            <mxPoint x="270" y="427" as="targetPoint" />
          </mxGeometry>
        </mxCell>
        <mxCell id="GGpWKW-SkmRGBh7Yy35_-5" value="Employeer" style="shape=umlActor;verticalLabelPosition=bottom;verticalAlign=top;html=1;outlineConnect=0;" vertex="1" parent="1">
          <mxGeometry x="244" y="368" width="30" height="60" as="geometry" />
        </mxCell>
        <mxCell id="GGpWKW-SkmRGBh7Yy35_-6" value="Admin" style="shape=umlActor;verticalLabelPosition=bottom;verticalAlign=top;html=1;outlineConnect=0;" vertex="1" parent="1">
          <mxGeometry x="395" y="368" width="30" height="60" as="geometry" />
        </mxCell>
        <mxCell id="GGpWKW-SkmRGBh7Yy35_-7" value="" style="endArrow=none;html=1;rounded=0;exitX=0;exitY=0.5;exitDx=0;exitDy=0;" edge="1" parent="1" source="GGpWKW-SkmRGBh7Yy35_-10" target="GGpWKW-SkmRGBh7Yy35_-6">
          <mxGeometry width="50" height="50" relative="1" as="geometry">
            <mxPoint x="483" y="401" as="sourcePoint" />
            <mxPoint x="582" y="280" as="targetPoint" />
          </mxGeometry>
        </mxCell>
        <mxCell id="GGpWKW-SkmRGBh7Yy35_-9" value="Обобщение" style="text;html=1;align=center;verticalAlign=middle;resizable=0;points=[];autosize=1;strokeColor=none;fillColor=none;" vertex="1" parent="1">
          <mxGeometry x="728" y="197" width="90" height="30" as="geometry" />
        </mxCell>
        <mxCell id="GGpWKW-SkmRGBh7Yy35_-10" value="Просмотр журнала событий" style="ellipse;whiteSpace=wrap;html=1;" vertex="1" parent="1">
          <mxGeometry x="487" y="337" width="138" height="70" as="geometry" />
        </mxCell>
        <mxCell id="GGpWKW-SkmRGBh7Yy35_-11" value="Просмотр списка книг" style="ellipse;whiteSpace=wrap;html=1;" vertex="1" parent="1">
          <mxGeometry x="278" y="266" width="120" height="80" as="geometry" />
        </mxCell>
        <mxCell id="GGpWKW-SkmRGBh7Yy35_-14" value="" style="endArrow=none;html=1;rounded=0;exitX=0;exitY=1;exitDx=0;exitDy=0;" edge="1" parent="1" source="GGpWKW-SkmRGBh7Yy35_-11" target="GGpWKW-SkmRGBh7Yy35_-5">
          <mxGeometry width="50" height="50" relative="1" as="geometry">
            <mxPoint x="377" y="367.5" as="sourcePoint" />
            <mxPoint x="307" y="367" as="targetPoint" />
          </mxGeometry>
        </mxCell>
        <mxCell id="GGpWKW-SkmRGBh7Yy35_-15" value="" style="endArrow=none;html=1;rounded=0;entryX=1;entryY=1;entryDx=0;entryDy=0;" edge="1" parent="1" source="GGpWKW-SkmRGBh7Yy35_-6" target="GGpWKW-SkmRGBh7Yy35_-11">
          <mxGeometry width="50" height="50" relative="1" as="geometry">
            <mxPoint x="545" y="268.5" as="sourcePoint" />
            <mxPoint x="475" y="268" as="targetPoint" />
          </mxGeometry>
        </mxCell>
        <mxCell id="GGpWKW-SkmRGBh7Yy35_-16" value="" style="endArrow=none;html=1;rounded=0;entryX=1;entryY=1;entryDx=0;entryDy=0;" edge="1" parent="1" source="GGpWKW-SkmRGBh7Yy35_-5" target="GGpWKW-SkmRGBh7Yy35_-17">
          <mxGeometry width="50" height="50" relative="1" as="geometry">
            <mxPoint x="218" y="295.5" as="sourcePoint" />
            <mxPoint x="199" y="362" as="targetPoint" />
          </mxGeometry>
        </mxCell>
        <mxCell id="GGpWKW-SkmRGBh7Yy35_-17" value="Редактировать занесённые книги" style="ellipse;whiteSpace=wrap;html=1;" vertex="1" parent="1">
          <mxGeometry x="119" y="279" width="120" height="80" as="geometry" />
        </mxCell>
        <mxCell id="GGpWKW-SkmRGBh7Yy35_-18" value="" style="endArrow=none;dashed=1;html=1;dashPattern=1 3;strokeWidth=2;rounded=0;entryX=0.5;entryY=1;entryDx=0;entryDy=0;exitX=0.5;exitY=0;exitDx=0;exitDy=0;" edge="1" parent="1" source="GGpWKW-SkmRGBh7Yy35_-17" target="GGpWKW-SkmRGBh7Yy35_-19">
          <mxGeometry width="50" height="50" relative="1" as="geometry">
            <mxPoint x="204" y="243" as="sourcePoint" />
            <mxPoint x="136" y="243" as="targetPoint" />
          </mxGeometry>
        </mxCell>
        <mxCell id="GGpWKW-SkmRGBh7Yy35_-19" value="Добавлять книги" style="ellipse;whiteSpace=wrap;html=1;" vertex="1" parent="1">
          <mxGeometry x="119" y="160" width="120" height="80" as="geometry" />
        </mxCell>
        <mxCell id="GGpWKW-SkmRGBh7Yy35_-20" value="Изменять статус заказов" style="ellipse;whiteSpace=wrap;html=1;" vertex="1" parent="1">
          <mxGeometry x="61" y="373" width="120" height="80" as="geometry" />
        </mxCell>
        <mxCell id="GGpWKW-SkmRGBh7Yy35_-21" value="" style="endArrow=none;html=1;rounded=0;entryX=1;entryY=0.4;entryDx=0;entryDy=0;entryPerimeter=0;" edge="1" parent="1" source="GGpWKW-SkmRGBh7Yy35_-5" target="GGpWKW-SkmRGBh7Yy35_-20">
          <mxGeometry width="50" height="50" relative="1" as="geometry">
            <mxPoint x="227" y="528.5" as="sourcePoint" />
            <mxPoint x="157" y="528" as="targetPoint" />
          </mxGeometry>
        </mxCell>
      </root>
    </mxGraphModel>
  </diagram>
</mxfile>
